PathFileType   4   (X/Y/Z)
DataRate	CameraRate	NumFrames	NumMarkers	Units	OrigDataRate	OrigDataStartFrame	OrigNumFrames
120.0	120.0	5	37	mm	120.0	84	97
Frame#	Time	midhip	hip_r	hip_l	knee_r	knee_l	ankle_r	ankle_l	midasis	asis_r	asis_l	psis_r	psis_l	epicondLat_r	epicondLat_l	epicondMed_r	epicondMed_l	malleolusLat_r	malleolusLat_l	malleolusMedv_r	malleolusMedv_l	neck	subclavicle_r	subclavicle_l	sternalnotch	xyphoidprocess	thighwand_r	thighwand_l	upperleg1_r	upperleg1_l	upperleg2_r	upperleg2_l	shankwand_r	shankwand_l	lowerleg1_r	lowerleg1_l	toe_r	toe_l
 	 	X1	Y1	Z1	X2	Y2	Z2	X3	Y3	Z3	X4	Y4	Z4	X5	Y5	Z5	X6	Y6	Z6	X7	Y7	Z7	X8	Y8	Z8	X9	Y9	Z9	X10	Y10	Z10	X11	Y11	Z11	X12	Y12	Z12	X13	Y13	Z13	X14	Y14	Z14	X15	Y15	Z15	X16	Y16	Z16	X17	Y17	Z17	X18	Y18	Z18	X19	Y19	Z19	X20	Y20	Z20	X21	Y21	Z21	X22	Y22	Z22	X23	Y23	Z23	X24	Y24	Z24	X25	Y25	Z25	X26	Y26	Z26	X27	Y27	Z27	X28	Y28	Z28	X29	Y29	Z29	X30	Y30	Z30	X31	Y31	Z31	X32	Y32	Z32	X33	Y33	Z33	X34	Y34	Z34	X35	Y35	Z35	X36	Y36	Z36	X37	Y37	Z37

	84	0.79167	2319.310	813.831	-284.857	2309.449	794.053	-202.231	2294.142	797.259	-353.553	2501.713	454.368	-195.973	2211.139	428.500	-339.294	2481.282	82.976	-212.622	2094.350	80.505	-319.878	2394.097	867.101	-282.659	2402.081	864.616	-165.307	2386.113	869.586	-400.011	2205.880	929.210	-234.768	2198.687	929.380	-289.068	2499.695	454.293	-138.008	2223.320	423.574	-395.787	2514.818	458.363	-257.469	2221.074	440.525	-272.536	2466.145	82.149	-175.606	2082.978	82.184	-358.190	2493.219	89.779	-245.912	2103.736	88.464	-293.680	2294.284	1366.902	-287.000	2418.418	1312.592	-228.084	2425.783	1307.618	-333.720	2418.781	1306.622	-280.320	2462.045	1239.352	-278.087	2578.825	648.506	-197.834	2297.558	540.445	-480.039	2493.264	658.782	-144.699	2240.007	603.191	-433.488	2526.953	577.307	-149.293	2232.113	517.380	-414.664	2460.321	156.821	-102.187	2221.566	172.513	-314.512	2464.150	164.377	-145.253	2182.017	185.223	-324.932	2572.385	60.890	-180.459	2194.316	41.836	-346.682
	85	0.80000	2331.954	811.073	-285.014	2323.302	791.918	-201.628	2307.270	794.941	-352.879	2515.886	453.019	-196.621	2216.950	428.709	-338.882	2518.188	80.784	-209.565	2095.228	82.119	-319.841	2407.547	864.890	-282.547	2416.118	862.539	-164.883	2398.975	867.242	-400.210	2219.636	926.888	-233.460	2211.958	927.257	-287.648	2514.807	453.263	-138.632	2228.632	423.666	-395.469	2528.280	453.850	-255.416	2226.775	439.997	-272.723	2503.300	79.402	-172.465	2083.602	84.102	-358.063	2531.621	88.035	-242.215	2105.003	90.119	-293.543	2307.779	1365.186	-286.747	2431.781	1310.406	-227.027	2440.079	1305.686	-332.117	2432.565	1304.437	-279.530	2475.777	1237.247	-276.549	2591.709	646.060	-200.773	2304.678	539.470	-479.821	2506.564	656.540	-147.009	2247.801	602.919	-432.711	2540.703	575.415	-150.114	2238.799	517.838	-414.509	2493.247	154.369	-99.741	2223.803	172.184	-315.069	2497.855	161.606	-142.264	2184.311	185.153	-324.198	2610.827	64.073	-178.167	2194.378	41.995	-346.788
	86	0.80833	2345.133	808.661	-285.008	2337.276	789.663	-201.080	2320.542	792.548	-352.257	2529.603	451.236	-197.126	2223.341	428.806	-338.578	2553.908	79.523	-206.601	2096.249	83.901	-320.013	2421.134	862.573	-282.454	2430.282	860.322	-164.447	2411.987	864.825	-400.460	2233.544	924.457	-232.002	2225.381	925.062	-286.126	2529.628	451.927	-139.130	2234.357	423.729	-395.295	2538.216	449.386	-253.885	2234.564	440.597	-271.031	2539.334	77.622	-169.399	2084.359	86.230	-358.134	2568.298	87.452	-238.853	2106.613	92.075	-293.715	2321.378	1363.243	-286.506	2445.430	1308.069	-226.387	2454.260	1303.283	-331.260	2446.381	1302.194	-278.694	2489.552	1234.809	-275.551	2604.142	642.704	-204.139	2311.817	538.594	-479.828	2520.027	653.935	-148.206	2255.870	602.289	-432.178	2553.802	572.466	-150.875	2246.016	517.509	-413.400	2525.238	152.752	-97.289	2226.206	171.863	-315.876	2530.272	159.523	-139.456	2186.482	185.708	-324.470	2647.810	67.878	-175.987	2194.490	42.210	-346.994
	87	0.81667	2358.671	806.359	-284.940	2351.391	787.309	-200.572	2333.964	790.085	-351.673	2543.008	449.101	-197.446	2230.334	428.758	-338.408	2588.058	79.047	-203.829	2097.404	85.843	-320.402	2434.877	860.159	-282.382	2444.596	857.986	-164.043	2425.158	862.332	-400.722	2247.629	921.947	-230.410	2238.980	922.804	-284.521	2544.299	450.368	-139.474	2240.537	423.744	-395.283	2547.657	444.275	-253.890	2241.214	440.364	-270.530	2573.848	76.673	-166.514	2085.255	88.557	-358.416	2603.480	88.186	-235.540	2108.461	93.919	-294.130	2334.838	1361.426	-285.852	2459.180	1305.713	-225.719	2468.177	1300.828	-331.217	2460.245	1299.927	-277.854	2503.190	1232.298	-275.118	2616.215	638.619	-207.860	2319.034	537.818	-480.043	2533.440	650.118	-149.926	2264.666	601.952	-431.564	2566.729	568.218	-152.631	2253.062	517.243	-412.833	2555.969	151.884	-94.914	2228.781	171.559	-316.911	2561.450	158.849	-136.476	2188.815	186.003	-325.816	2682.981	72.086	-173.932	2194.672	42.473	-347.306
	88	0.82500	2372.337	803.920	-284.832	2365.688	784.888	-200.052	2347.559	787.552	-351.073	2556.240	446.717	-197.555	2237.942	428.535	-338.389	2620.251	79.140	-201.340	2098.696	87.935	-321.030	2448.801	857.667	-282.304	2459.100	855.575	-163.663	2438.501	859.759	-400.946	2261.915	919.387	-228.704	2252.769	920.484	-282.844	2558.965	448.681	-139.653	2247.212	423.689	-395.438	2556.545	438.477	-253.313	2247.323	439.427	-271.729	2606.442	76.349	-163.903	2086.311	91.067	-358.935	2636.434	89.557	-232.542	2110.255	95.551	-294.681	2348.243	1359.267	-285.223	2472.800	1303.126	-224.788	2481.997	1298.859	-330.552	2474.172	1297.646	-277.020	2516.938	1230.019	-274.673	2628.014	634.040	-211.861	2326.419	537.142	-480.443	2547.258	645.896	-151.973	2273.759	602.084	-431.045	2579.638	563.641	-154.413	2260.256	517.746	-413.256	2585.127	151.598	-92.698	2231.536	171.265	-318.152	2590.809	159.475	-133.915	2191.830	186.018	-326.747	2715.992	76.409	-172.020	2194.938	42.762	-347.729
